<svg width="640" height="640" viewBox="0 0 640 640" fill="none" xmlns="http://www.w3.org/2000/svg">
<defs>
  <linearGradient id="orb" x1="90" y1="140" x2="540" y2="530" gradientUnits="userSpaceOnUse"><stop stop-color="#35D8FF"/><stop offset=".46" stop-color="#275CFF"/><stop offset="1" stop-color="#C14BFF"/></linearGradient>
  <linearGradient id="glow" x1="390" y1="160" x2="500" y2="240" gradientUnits="userSpaceOnUse"><stop stop-color="#5AE7FF"/><stop offset="1" stop-color="#BB4BFF"/></linearGradient>
  <radialGradient id="star" cx="0" cy="0" r="1" gradientUnits="userSpaceOnUse" gradientTransform="translate(320 326) rotate(90) scale(92)"><stop stop-color="#B8FAFF"/><stop offset=".48" stop-color="#5D9DFF"/><stop offset="1" stop-color="#D64EFF"/></radialGradient>
  <filter id="shadow" x="55" y="100" width="530" height="480" filterUnits="userSpaceOnUse"><feDropShadow dx="0" dy="18" stdDeviation="22" flood-opacity=".48"/></filter>
</defs>
<g filter="url(#shadow)">
  <path d="M125 405C76 318 118 203 227 149C305 111 388 108 463 125C386 147 306 192 252 246C184 315 154 390 168 449C177 488 205 521 245 541C185 527 145 488 125 405Z" fill="url(#orb)"/>
  <path d="M206 491C274 520 361 519 452 477C512 449 557 405 584 355C575 438 511 514 423 548C338 581 253 572 200 535C184 524 171 511 160 494C173 498 189 495 206 491Z" fill="url(#orb)"/>
  <path d="M181 359C229 303 302 242 396 194C421 181 446 171 467 166C438 198 423 223 431 250C438 273 458 285 486 293C527 305 563 315 582 334C539 327 496 318 458 306C417 293 386 288 356 299C323 311 288 335 252 367C218 397 191 419 169 430C170 407 174 381 181 359Z" fill="#000"/>
  <path d="M441 168C475 160 508 168 530 191C546 208 553 229 550 251C532 225 505 211 476 214C454 216 435 225 421 238C421 211 428 186 441 168Z" fill="white"/>
  <circle cx="493" cy="117" r="46" fill="url(#glow)"/>
  <path d="M320 243L341 292L390 320L341 339L320 399L299 340L250 320L299 299L320 243Z" fill="url(#star)"/>
  <path d="M511 259C534 267 553 274 571 286C584 295 591 304 596 316C583 307 568 302 551 299C532 296 515 292 501 286C514 278 518 268 511 259Z" fill="url(#orb)"/>
</g>
</svg>