<svg xmlns="http://www.w3.org/2000/svg" viewBox="0 0 1600 900"><defs><linearGradient id="bg" x1="0" y1="0" x2="1" y2="1"><stop stop-color="#08111f"/><stop offset=".5" stop-color="#11284a"/><stop offset="1" stop-color="#2a1551"/></linearGradient><radialGradient id="g" cx="72%" cy="22%"><stop stop-color="#56d8ff" stop-opacity=".45"/><stop offset="1" stop-color="#56d8ff" stop-opacity="0"/></radialGradient><filter id="blur"><feGaussianBlur stdDeviation="26"/></filter></defs><rect width="1600" height="900" fill="url(#bg)"/><rect width="1600" height="900" fill="url(#g)"/><circle cx="1260" cy="180" r="180" fill="#8e67ff" opacity=".14" filter="url(#blur)"/><path d="M0 650h1600v250H0z" fill="#05070c" opacity=".7"/><g transform="translate(920 105) rotate(7)"><rect x="0" y="0" width="390" height="690" rx="46" fill="#060a12" stroke="#78d9ff" stroke-opacity=".45" stroke-width="5"/><rect x="28" y="34" width="334" height="620" rx="30" fill="#0d1625"/><circle cx="195" cy="72" r="8" fill="#16263d"/><rect x="62" y="122" width="270" height="60" rx="14" fill="#16253a"/><rect x="62" y="215" width="124" height="110" rx="16" fill="#12233a"/><rect x="202" y="215" width="130" height="110" rx="16" fill="#182b46"/><rect x="62" y="352" width="270" height="18" rx="9" fill="#2a496c"/><rect x="62" y="388" width="220" height="14" rx="7" fill="#1e3857"/><rect x="62" y="450" width="270" height="110" rx="18" fill="#10243b"/><path d="M82 535h205" stroke="#5dd9ff" stroke-width="7" stroke-linecap="round"/><circle cx="300" cy="122" r="18" fill="#5dd9ff" opacity=".8"/></g><g transform="translate(250 250)"><path d="M0 250l190-155 190 155v230H0z" fill="#0a1321" stroke="#7ba7ff" stroke-opacity=".4" stroke-width="4"/><path d="M48 250v-102h52v102M145 250v-145h52v145M242 250v-102h52v102" fill="#13263d"/><path d="M38 330h304M38 380h304" stroke="#315274" stroke-width="12" stroke-linecap="round" opacity=".65"/><path d="M78 106h225" stroke="#66d9ff" stroke-width="10" stroke-linecap="round" opacity=".8"/><circle cx="250" cy="70" r="45" fill="#5ed8ff" opacity=".14"/></g><g fill="#7de5ff" opacity=".65"><circle cx="170" cy="145" r="4"/><circle cx="1420" cy="555" r="4"/><circle cx="1330" cy="720" r="3"/><circle cx="510" cy="120" r="3"/></g></svg>