<svg xmlns="http://www.w3.org/2000/svg" viewBox="0 0 1600 900"><defs><linearGradient id="b" y2="1"><stop stop-color="#06131e"/><stop offset=".55" stop-color="#0a2730"/><stop offset="1" stop-color="#05090c"/></linearGradient><radialGradient id="g" cx="58%" cy="45%"><stop stop-color="#3dd9c1" stop-opacity=".28"/><stop offset="1" stop-color="#3dd9c1" stop-opacity="0"/></radialGradient></defs><rect width="1600" height="900" fill="url(#b)"/><rect width="1600" height="900" fill="url(#g)"/><circle cx="1240" cy="160" r="96" fill="#d8f5ff" opacity=".75"/><path d="M0 600l260-250 170 185 230-280 185 250 170-190 240 205 160-130 180 170v340H0z" fill="#0a171c"/><path d="M0 720l310-230 210 170 220-210 210 170 220-145 430 260v165H0z" fill="#04090c"/><g stroke="#49d8c1" stroke-width="5" opacity=".5"><path d="M430 690q80-160 160 0t160 0t160 0"/><circle cx="800" cy="515" r="30" fill="none"/></g><path d="M1000 650h20v-90h20v90h20v-135h20v135h20v-55h20v55" fill="none" stroke="#77f0d0" stroke-width="7"/></svg>