<svg xmlns="http://www.w3.org/2000/svg" viewBox="0 0 1200 675"><defs><linearGradient id="g" x1="0" y1="0" x2="1" y2="1"><stop stop-color="#03080b"/><stop offset=".55" stop-color="#0c3140"/><stop offset="1" stop-color="#172f1d"/></linearGradient><radialGradient id="m"><stop stop-color="#6ee7c7" stop-opacity=".42"/><stop offset="1" stop-color="#6ee7c7" stop-opacity="0"/></radialGradient></defs><rect width="1200" height="675" fill="url(#g)"/><circle cx="650" cy="250" r="230" fill="url(#m)"/><path d="M0 600L210 340 360 470 520 290 720 475 900 300 1200 600V675H0Z" fill="#05100d"/><path d="M0 620L250 430 430 540 620 390 800 535 1010 400 1200 550V675H0Z" fill="#071b18"/><g fill="#2d6b53"><path d="M120 540l38-130 38 130zM185 540l42-175 44 175zM1040 520l45-165 45 165zM1110 540l35-125 35 125z"/></g><path d="M570 600q35-130 70 0M585 515h40" stroke="#b8ffe8" stroke-width="6" opacity=".75"/><circle cx="705" cy="215" r="8" fill="#c5fff0"/></svg>