<svg xmlns="http://www.w3.org/2000/svg" viewBox="0 0 1600 900"><defs><linearGradient id="b" x2="1" y2="1"><stop stop-color="#17102b"/><stop offset=".55" stop-color="#0b1930"/><stop offset="1" stop-color="#07100f"/></linearGradient><radialGradient id="l" cx="50%" cy="45%"><stop stop-color="#7a63ff" stop-opacity=".55"/><stop offset="1" stop-color="#7a63ff" stop-opacity="0"/></radialGradient></defs><rect width="1600" height="900" fill="url(#b)"/><rect width="1600" height="900" fill="url(#l)"/><circle cx="1230" cy="210" r="95" fill="#dfe4ff" opacity=".8"/><path d="M0 720Q260 570 520 710T1030 690T1600 640V900H0Z" fill="#090b13"/><path d="M0 775Q280 660 600 770T1180 735T1600 705V900H0Z" fill="#05070a"/><g stroke="#7b68d9" stroke-width="5" opacity=".55"><path d="M180 300l145 80 135-95 155 120 150-90 150 105"/><path d="M1050 335l85 55 80-60 95 70"/></g><g fill="#1a2540"><path d="M210 760l70-150 70 150zM360 760l65-125 65 125zM510 760l75-165 75 165zM1280 760l80-185 80 185z"/></g></svg>